<?xml version="1.0" standalone="no"?>
<!DOCTYPE svg PUBLIC "-//W3C//DTD SVG 20010904//EN"
 "http://www.w3.org/TR/2001/REC-SVG-20010904/DTD/svg10.dtd">
<svg version="1.0" xmlns="http://www.w3.org/2000/svg"
 width="678.000000pt" height="767.000000pt" viewBox="0 0 678.000000 767.000000"
 preserveAspectRatio="xMidYMid meet">

<g transform="translate(0.000000,767.000000) scale(0.100000,-0.100000)"
fill="#000000" stroke="none">
<path d="M0 3835 l0 -3835 3390 0 3390 0 0 1812 0 1812 -26 38 -27 38 27 23
26 23 0 1962 0 1962 -3390 0 -3390 0 0 -3835z m867 2681 c-9 -23 -34 -31 -52
-16 -20 17 -19 47 3 59 22 13 58 -19 49 -43z m4418 -71 c0 -30 -39 -27 -43 3
-3 20 0 23 20 20 15 -2 23 -10 23 -23z m-3595 -131 c0 -9 -5 -14 -12 -12 -18
6 -21 28 -4 28 9 0 16 -7 16 -16z m1835 -418 c61 -16 138 -41 172 -56 84 -38
248 -135 303 -179 48 -38 112 -102 107 -107 -1 -2 -20 1 -41 6 -67 15 -288 22
-356 11 -155 -24 -193 -33 -307 -71 -67 -22 -126 -40 -132 -40 -6 0 -43 -15
-83 -34 -40 -19 -100 -45 -133 -59 -33 -14 -87 -41 -120 -60 -33 -20 -82 -47
-109 -62 -43 -23 -112 -71 -141 -98 -18 -17 437 1 585 24 184 28 351 56 375
64 17 5 23 -1 35 -32 23 -58 23 -60 2 -35 -11 12 -27 20 -34 17 -22 -9 -50
-63 -69 -134 -10 -36 -18 -57 -18 -46 -1 28 26 114 45 144 9 14 26 34 38 43
26 22 15 22 -66 3 -55 -12 -214 -37 -418 -65 -80 -11 -257 -19 -411 -20 l-117
0 -17 -74 c-9 -41 -18 -98 -21 -128 -14 -146 -20 -244 -16 -251 2 -4 11 -2 20
5 12 10 11 7 -3 -15 -16 -25 -17 -35 -7 -95 15 -87 41 -152 61 -153 10 0 12
-2 4 -6 -21 -8 -16 -22 52 -161 61 -124 106 -195 172 -269 36 -41 125 -77 239
-98 120 -22 493 -29 584 -10 154 31 243 60 369 122 120 59 142 74 222 152 49
47 89 84 89 81 0 -15 -98 -162 -147 -223 -50 -60 -150 -142 -196 -160 -9 -3
-41 -22 -70 -40 -70 -45 -368 -142 -472 -154 -22 -2 -59 -8 -82 -12 -24 -5
-46 -5 -48 -1 -3 4 -24 4 -47 -1 -26 -6 -87 -6 -165 0 -142 11 -163 20 -232
101 -42 49 -112 92 -171 104 -16 3 -43 29 -75 71 -83 111 -180 183 -287 216
-66 20 -78 18 -78 -12 0 -10 -7 -19 -15 -19 -8 0 -21 -15 -29 -33 -12 -30 -59
-77 -75 -77 -3 0 -19 18 -35 40 -16 21 -32 37 -36 35 -4 -2 -7 1 -7 8 0 7 -26
54 -57 105 -65 106 -71 121 -95 217 l-17 70 -42 9 c-23 5 -42 12 -42 16 0 5
10 6 22 2 20 -5 21 -3 14 39 -4 26 -3 39 2 31 6 -9 8 0 7 23 -3 45 -15 59 -16
19 -1 -16 -5 -2 -10 31 -9 65 -4 125 11 125 6 0 9 12 9 28 -1 16 -3 20 -6 10
-10 -37 -19 -15 -19 42 1 44 4 59 14 55 14 -5 16 21 2 30 -6 4 -7 12 -3 18 8
13 10 21 17 83 7 58 16 79 28 62 5 -8 6 -2 2 16 -5 20 -4 27 4 22 8 -5 10 -1
5 10 -4 10 0 22 10 29 8 6 19 24 22 41 5 22 4 25 -4 14 -7 -10 -11 -11 -11 -2
0 6 9 21 19 31 20 20 20 20 0 26 -30 10 -22 28 10 23 26 -4 32 1 63 51 18 31
32 59 30 64 -1 5 2 6 8 2 5 -3 10 -2 10 3 0 13 26 43 145 164 184 186 384 297
620 342 116 22 140 24 355 22 177 -2 205 -5 305 -30z m-2527 -24 c2 -7 -3 -12
-12 -12 -9 0 -16 7 -16 16 0 17 22 14 28 -4z m4422 -7 c0 -18 -5 -25 -20 -25
-20 0 -28 28 -13 43 15 16 33 6 33 -18z m890 -220 c0 -8 -7 -15 -15 -15 -8 0
-15 7 -15 15 0 8 7 15 15 15 8 0 15 -7 15 -15z m-369 -30 c-1 -15 -24 -12 -29
3 -3 9 2 13 12 10 10 -1 17 -7 17 -13z m-1866 -185 c44 -22 110 -92 140 -149
33 -64 66 -175 85 -286 16 -94 18 -129 10 -225 -10 -122 -28 -210 -45 -213 -5
-1 -11 13 -13 32 -10 107 -111 435 -166 540 -73 139 -148 211 -258 246 -64 20
-69 24 -50 34 21 11 171 38 226 40 16 0 48 -8 71 -19z m-518 -497 c-3 -10 -5
-4 -5 12 0 17 2 24 5 18 2 -7 2 -21 0 -30z m-10 -80 c-3 -10 -5 -4 -5 12 0 17
2 24 5 18 2 -7 2 -21 0 -30z m-917 -44 c0 -9 3 -32 6 -50 l6 -34 -20 30 c-12
18 -16 36 -12 44 5 8 4 26 -1 40 -9 25 -8 25 6 7 8 -11 15 -27 15 -37z m907
-121 c-2 -24 -4 -7 -4 37 0 44 2 63 4 43 2 -21 2 -57 0 -80z m-2150 10 c11
-24 35 -81 54 -127 42 -107 91 -161 169 -186 77 -25 80 -28 80 -100 0 -54 4
-68 27 -96 37 -43 110 -89 144 -89 20 0 30 7 39 30 10 24 15 28 26 19 8 -6 14
-20 14 -30 0 -10 18 -39 40 -64 42 -48 47 -64 29 -82 -11 -11 11 -94 32 -120
7 -8 4 -15 -11 -23 -26 -14 -40 -5 -40 26 0 45 -36 93 -71 94 -23 0 -51 -35
-47 -61 2 -12 12 -27 23 -33 11 -6 22 -12 24 -13 8 -4 -29 -33 -54 -43 -56
-21 -135 -4 -152 33 -18 37 -131 154 -163 167 -33 14 -42 35 -10 27 30 -8 28
41 -2 53 -20 7 -20 9 -4 9 16 1 17 6 11 34 -4 17 -11 51 -15 74 -8 50 -30 78
-82 104 -20 10 -48 33 -62 51 l-26 33 28 5 c26 5 27 7 26 75 -1 70 -12 106
-54 171 -11 17 -23 52 -26 79 -7 45 -6 47 13 36 11 -5 29 -30 40 -53z m1234
-5 c-12 -20 -14 -14 -5 12 4 9 9 14 11 11 3 -2 0 -13 -6 -23z m282 -60 c13 -7
47 -104 47 -132 0 -6 -13 -11 -29 -11 -28 0 -31 4 -59 88 -16 48 -33 96 -38
107 -6 15 1 13 28 -12 20 -17 43 -35 51 -40z m684 25 c-3 -8 -6 -5 -6 6 -1 11
2 17 5 13 3 -3 4 -12 1 -19z m-934 -15 c-7 -2 -21 -2 -30 0 -10 3 -4 5 12 5
17 0 24 -2 18 -5z m38 -20 c13 -16 12 -17 -3 -4 -17 13 -22 21 -14 21 2 0 10
-8 17 -17z m-1441 -25 c20 -34 27 -78 11 -78 -13 0 -25 20 -43 68 -14 36 -14
42 -2 42 8 0 23 -15 34 -32z m1749 8 c23 -13 51 -66 51 -100 0 -9 -48 -8 -53
2 -9 14 -36 112 -31 112 3 0 17 -6 33 -14z m1716 -87 l-58 -93 0 -123 c0 -68
-4 -123 -9 -123 -4 0 -8 -5 -8 -12 0 -6 -11 -26 -26 -45 -14 -18 -22 -38 -18
-45 4 -7 3 -8 -4 -4 -8 5 -12 -5 -12 -34 0 -35 -4 -42 -27 -52 -16 -6 -32 -10
-38 -9 -5 2 -7 0 -3 -4 14 -15 -32 -48 -69 -51 -21 -1 -43 -2 -50 -3 -6 -1
-19 -9 -29 -18 -25 -25 -36 -23 -58 11 l-18 30 31 28 c18 16 31 38 31 51 0 14
18 40 48 68 55 53 68 76 78 144 l7 50 9 -43 c9 -40 12 -43 34 -38 33 9 70 42
85 77 10 27 9 32 -15 54 -28 26 -32 56 -16 116 7 25 28 50 76 90 36 30 68 53
70 51 3 -1 12 4 21 13 34 35 22 2 -32 -86z m-1165 -17 c11 13 19 18 20 11 0
-14 -48 -53 -64 -52 -7 0 -6 3 2 6 8 3 13 30 14 76 l2 72 3 -68 4 -68 19 23z
m27 61 c-3 -10 -5 -2 -5 17 0 19 2 27 5 18 2 -10 2 -26 0 -35z m-837 12 c13
-14 21 -25 18 -25 -2 0 -15 11 -28 25 -13 14 -21 25 -18 25 2 0 15 -11 28 -25z
m366 7 c6 -4 19 -22 28 -39 l17 -33 -30 0 c-21 0 -30 6 -35 23 -13 49 -6 66
20 49z m108 -28 c22 -21 20 -44 -3 -44 -19 0 -31 18 -31 46 0 18 15 18 34 -2z
m76 -14 c8 -5 11 -12 8 -16 -10 -9 -38 3 -38 16 0 12 10 13 30 0z m-441 -57
c2 -2 2 -5 -1 -8 -2 -3 -20 12 -39 33 l-34 37 35 -30 c19 -17 37 -31 39 -32z
m514 50 c-7 -2 -19 -2 -25 0 -7 3 -2 5 12 5 14 0 19 -2 13 -5z m50 -20 c-7 -2
-19 -2 -25 0 -7 3 -2 5 12 5 14 0 19 -2 13 -5z m-50 -10 c-7 -2 -21 -2 -30 0
-10 3 -4 5 12 5 17 0 24 -2 18 -5z m-75 -10 c-10 -2 -26 -2 -35 0 -10 3 -2 5
17 5 19 0 27 -2 18 -5z m-95 -10 c-7 -2 -21 -2 -30 0 -10 3 -4 5 12 5 17 0 24
-2 18 -5z m-85 -10 c-10 -2 -26 -2 -35 0 -10 3 -2 5 17 5 19 0 27 -2 18 -5z
m-110 -10 c-27 -2 -69 -2 -95 0 -27 2 -5 3 47 3 52 0 74 -1 48 -3z m1794 -18
c-2 -14 -8 -22 -13 -19 -5 3 -9 1 -9 -5 0 -9 -50 -41 -65 -41 -16 0 32 60 59
73 17 9 32 16 32 16 1 1 -1 -10 -4 -24z m-1305 9 c-3 -3 -12 -4 -19 -1 -8 3
-5 6 6 6 11 1 17 -2 13 -5z m-54 -11 c-7 -2 -19 -2 -25 0 -7 3 -2 5 12 5 14 0
19 -2 13 -5z m-66 -9 c-3 -3 -12 -4 -19 -1 -8 3 -5 6 6 6 11 1 17 -2 13 -5z
m-54 -11 c-7 -2 -19 -2 -25 0 -7 3 -2 5 12 5 14 0 19 -2 13 -5z m-70 -10 c-7
-2 -19 -2 -25 0 -7 3 -2 5 12 5 14 0 19 -2 13 -5z m-90 -10 c-13 -2 -33 -2
-45 0 -13 2 -3 4 22 4 25 0 35 -2 23 -4z m-315 -10 c-27 -2 -69 -2 -95 0 -27
2 -5 3 47 3 52 0 74 -1 48 -3z m110 0 c-10 -2 -28 -2 -40 0 -13 2 -5 4 17 4
22 1 32 -1 23 -4z m-2144 -215 c7 -37 -11 -58 -50 -58 -19 0 -24 7 -30 36 -7
41 4 54 47 54 22 0 28 -6 33 -32z m1541 -156 c-3 -3 -11 0 -18 7 -9 10 -8 11
6 5 10 -3 15 -9 12 -12z m-34 -84 c9 -12 22 -45 29 -73 23 -94 -21 -189 -104
-229 -56 -27 -83 -19 -119 34 -27 38 -23 125 9 188 28 57 79 106 101 98 8 -3
11 -1 8 4 -13 20 60 -1 76 -22z m82 4 c27 -29 57 -105 57 -143 0 -97 -70 -201
-150 -224 -17 -5 -12 2 18 22 31 20 52 45 74 90 28 57 30 70 25 128 -3 48 -12
76 -31 105 -27 41 -22 55 7 22z m148 -59 c13 -15 12 -15 -8 -4 -24 12 -29 21
-14 21 5 0 15 -7 22 -17z m1690 -50 l34 -36 -42 33 c-24 18 -43 35 -43 37 0
12 21 -2 51 -34z m-1663 -28 c-3 -3 -9 2 -12 12 -6 14 -5 15 5 6 7 -7 10 -15
7 -18z m234 -21 c44 -23 129 -104 121 -117 -3 -5 -2 -7 4 -4 5 3 33 -15 62
-42 28 -26 54 -44 57 -40 2 5 20 -1 39 -11 19 -11 35 -15 35 -9 0 6 7 3 16 -6
10 -10 24 -13 36 -9 13 4 18 2 14 -4 -3 -6 -1 -12 5 -14 19 -6 -8 -48 -31 -48
-10 0 -22 -5 -25 -10 -4 -6 -11 -7 -17 -4 -6 4 -8 2 -4 -4 8 -13 -86 -11 -97
3 -5 6 -7 4 -4 -5 3 -9 -3 -25 -13 -37 l-17 -22 -22 25 c-11 13 -21 32 -21 41
0 9 -3 13 -6 10 -4 -4 -21 28 -38 71 -17 42 -57 114 -89 160 -31 46 -57 85
-57 88 0 8 22 3 52 -12z m-217 -54 c3 -5 1 -10 -4 -10 -6 0 -11 5 -11 10 0 6
2 10 4 10 3 0 8 -4 11 -10z m-13 -79 c41 -36 33 -91 -13 -91 -22 0 -33 16 -18
26 8 5 9 3 4 -7 -4 -8 2 -4 14 9 21 21 22 62 3 62 -10 0 -44 -40 -34 -40 4 0
1 -4 -7 -9 -38 -24 -49 15 -17 61 19 30 24 29 68 -11z m1353 0 c-3 -6 -11 -11
-16 -11 -5 0 -4 6 3 14 14 16 24 13 13 -3z m-39 -10 c-4 -5 0 -12 6 -15 7 -3
2 -3 -11 0 -13 3 -21 2 -18 -3 3 -4 -1 -17 -9 -28 -8 -10 -14 -14 -14 -9 0 6
5 15 12 22 9 9 9 12 -2 12 -9 0 -8 5 6 15 21 16 38 20 30 6z m9 -48 c-1 -10 2
-23 6 -29 6 -7 -1 -21 -18 -39 -20 -20 -23 -26 -10 -22 10 4 16 3 12 -2 -3 -5
1 -12 7 -14 7 -3 3 -6 -9 -6 -27 -1 -35 19 -16 41 12 13 12 21 3 38 -7 12 -8
20 -2 16 5 -3 12 3 15 14 6 25 16 27 12 3z m-140 -12 c-3 -6 -11 -9 -16 -6 -8
5 -13 -7 -11 -27 1 -3 -5 -12 -13 -18 -13 -11 -13 -14 1 -24 13 -10 13 -12 -5
-12 -11 0 -18 2 -16 5 3 2 0 10 -5 16 -7 8 -4 18 10 30 11 10 20 25 20 33 0 8
6 12 15 8 8 -3 15 0 15 6 0 6 3 9 6 5 3 -3 3 -11 -1 -16z m35 9 c5 8 9 7 13
-5 5 -11 3 -14 -5 -9 -7 5 -9 2 -5 -9 6 -15 -20 -34 -31 -22 -3 3 0 5 7 5 9 0
11 9 7 28 -3 15 -3 21 1 13 4 -10 7 -10 13 -1z m-97 -27 c-3 -7 -6 -13 -8 -13
-2 0 -5 6 -8 13 -3 8 1 14 8 14 7 0 11 -6 8 -14z m-429 -6 c3 3 6 1 6 -6 0 -7
4 -10 9 -7 5 4 7 -4 3 -16 l-5 -23 23 20 23 20 -14 -22 c-15 -25 -21 -26 -68
-17 -18 4 -31 13 -31 21 0 10 6 13 15 9 40 -16 48 -16 23 0 -31 21 -38 40 -9
25 10 -6 21 -7 25 -4z m326 2 c12 -9 11 -10 -5 -5 -19 6 -19 5 -2 -8 18 -14
13 -51 -5 -40 -6 4 -6 9 2 14 9 5 9 9 1 14 -6 4 -14 0 -17 -8 -3 -9 -10 -16
-16 -16 -5 0 -6 5 -2 12 5 8 2 9 -11 4 -15 -5 -14 -2 5 17 30 29 31 30 50 16z
m63 4 c-7 -2 -19 -2 -25 0 -7 3 -2 5 12 5 14 0 19 -2 13 -5z m-299 -20 c-5
-17 -5 -17 9 0 14 16 15 16 21 1 4 -9 4 -19 1 -22 -3 -3 -5 1 -5 9 0 12 -2 12
-9 0 -5 -8 -16 -11 -26 -7 -14 5 -15 9 -5 21 16 20 21 19 14 -2z m67 -16 c7
-12 8 -19 4 -15 -4 4 -14 1 -21 -7 -15 -15 -48 -10 -39 6 3 4 13 5 22 2 13 -5
15 -1 11 20 -6 30 6 27 23 -6z m49 18 c0 -17 2 -18 25 -9 13 5 14 8 3 15 -9 6
-9 9 -1 9 6 0 14 -4 18 -9 8 -13 -27 -31 -51 -26 -10 2 -22 4 -25 4 -4 1 -9 8
-13 16 -4 11 1 15 19 15 16 0 25 -6 25 -15z m545 0 c-16 -7 -25 -14 -18 -14 7
-1 17 -11 23 -23 11 -22 10 -22 -4 -4 -12 15 -16 16 -17 5 0 -8 -4 -6 -8 6
-11 25 5 45 33 45 17 -1 16 -3 -9 -15z m37 -8 c-7 -8 -10 -17 -7 -21 3 -3 0
-2 -6 3 -8 7 -8 13 2 24 17 18 26 13 11 -6z m-388 -13 c4 -11 -9 -30 -41 -60
-47 -43 -50 -44 -110 -43 -43 1 -61 5 -56 13 3 6 0 5 -8 -1 -7 -7 -29 -13 -48
-13 -20 -1 -69 -7 -108 -14 -40 -7 -73 -11 -73 -10 0 1 7 21 15 44 8 24 14 45
12 47 -8 8 -34 -9 -34 -22 0 -8 4 -12 9 -9 10 7 10 3 -3 -33 -9 -27 -18 -32
-72 -46 -46 -11 -64 -12 -69 -3 -5 7 -8 5 -8 -6 0 -23 -49 -36 -60 -17 -5 7
-7 16 -4 20 2 4 -2 9 -8 12 -9 3 -7 12 8 33 19 26 28 29 74 29 34 0 55 5 57
13 3 6 11 12 19 12 8 0 25 6 37 14 14 8 46 12 87 11 97 -3 100 -4 100 -18 0
-7 15 -21 33 -31 l32 -19 -22 25 c-31 34 -29 38 18 38 28 0 46 6 55 18 13 16
14 16 8 -2 -6 -16 -4 -17 13 -8 15 8 25 8 39 -2 16 -11 36 -12 87 -7 18 2 5
40 -15 44 -21 4 -20 4 3 6 16 0 29 -5 33 -15z m141 7 c3 -6 -4 -15 -15 -21
-16 -8 -20 -8 -18 2 2 7 8 16 13 20 13 10 13 10 20 -1z m289 -7 c3 -8 2 -12
-4 -9 -6 3 -10 10 -10 16 0 14 7 11 14 -7z m-1267 -11 c30 -14 34 -20 29 -42
-17 -70 -18 -101 -6 -116 11 -14 10 -19 -8 -37 -19 -19 -19 -23 -5 -44 14 -23
14 -24 -6 -24 -12 0 -19 -4 -16 -10 4 -7 13 -6 26 1 19 10 19 12 5 33 -13 21
-13 24 5 39 21 19 24 33 9 42 -14 9 -12 57 3 94 l14 32 44 -48 c51 -54 94
-137 109 -210 8 -38 7 -59 -7 -106 -10 -32 -22 -57 -26 -57 -4 1 -20 -6 -35
-16 -18 -12 -27 -13 -30 -6 -2 7 -19 12 -37 12 -56 0 -91 67 -64 123 10 21 10
21 -5 3 -9 -11 -16 -30 -16 -41 0 -33 -20 -85 -33 -85 -8 0 -7 -4 2 -9 11 -7
10 -13 -3 -34 -14 -21 -24 -25 -69 -25 -29 0 -60 4 -69 9 -12 7 -25 5 -42 -6
-16 -11 -43 -15 -81 -14 -36 2 -59 -2 -64 -9 -5 -8 -23 -11 -52 -7 -110 13
-121 17 -138 46 -9 16 -23 29 -31 29 -12 -1 -11 -3 3 -11 9 -5 17 -16 17 -24
0 -18 31 -35 64 -35 14 0 27 -4 30 -8 8 -13 99 -12 114 1 7 6 40 9 73 8 43 -2
63 2 75 13 12 12 20 13 35 6 10 -6 34 -10 51 -9 18 1 42 -1 53 -4 16 -5 23 0
35 26 8 17 15 37 16 42 0 6 4 23 9 39 l8 28 24 -31 c17 -22 33 -31 53 -31 16
0 30 -6 33 -12 3 -10 10 -10 31 2 22 11 31 12 46 2 11 -7 31 -12 45 -12 30 0
31 -4 4 -73 -16 -42 -25 -54 -38 -50 -12 3 -13 2 -3 -4 10 -7 3 -30 -30 -100
-41 -85 -45 -89 -66 -80 -15 7 -21 16 -17 26 13 32 9 36 -37 36 -26 0 -53 6
-60 13 -6 6 -17 12 -24 12 -6 0 -14 11 -16 25 -3 14 -2 25 1 25 16 0 8 41 -9
50 -15 8 -17 15 -11 34 7 16 6 23 -3 23 -18 0 -12 -48 8 -63 13 -9 15 -17 8
-30 -5 -9 -7 -25 -5 -35 6 -22 -15 -52 -30 -42 -6 3 -7 1 -3 -5 3 -6 -2 -16
-11 -22 -16 -10 -16 -11 4 -7 13 3 26 1 29 -4 8 -14 24 0 24 22 0 22 28 26 36
5 4 -12 17 -13 56 -9 50 6 50 6 38 -17 -11 -20 -10 -25 5 -36 10 -7 23 -15 28
-17 7 -2 5 -22 -4 -57 -18 -62 -25 -66 -149 -76 -91 -7 -128 10 -175 77 -21
30 -42 46 -65 52 -35 9 -35 9 -10 19 13 5 34 7 46 4 19 -5 104 27 104 40 0 3
-3 3 -7 1 -51 -29 -82 -37 -106 -28 -17 7 -27 7 -27 1 0 -6 -16 -10 -36 -10
-94 0 -252 170 -278 300 -3 14 -8 36 -11 50 -7 29 -8 140 -1 147 2 2 17 -2 33
-10 45 -22 158 1 203 42 25 22 36 27 42 18 5 -8 8 -5 8 9 0 20 59 74 205 190
27 21 56 45 63 52 18 16 27 15 69 -5z m1144 -1 c-11 -4 -11 -6 0 -14 11 -8 10
-9 -3 -5 -9 3 -22 0 -28 -8 -9 -11 -4 -11 31 -4 32 8 44 7 50 -3 5 -8 9 -8 9
-2 0 13 48 36 60 29 5 -3 11 -1 14 4 7 11 52 -10 83 -38 11 -11 23 -18 25 -15
3 2 29 -13 59 -34 48 -33 56 -45 76 -102 12 -36 23 -83 23 -105 0 -47 -39
-175 -54 -175 -6 0 -24 -7 -40 -15 -16 -9 -37 -13 -48 -10 -10 4 -18 2 -18 -4
0 -6 -8 -11 -17 -12 -12 0 -13 -2 -5 -6 7 -3 18 0 25 5 8 7 18 7 27 2 9 -6 20
-4 30 4 8 7 23 16 33 19 14 5 16 3 9 -11 -5 -9 -17 -34 -27 -54 -9 -21 -25
-38 -34 -38 -11 0 -12 -3 -4 -8 8 -5 8 -12 -3 -26 -8 -11 -14 -15 -14 -9 0 7
-13 27 -30 45 -16 18 -30 39 -31 48 0 8 -2 24 -4 35 -2 10 1 25 7 32 7 9 7 17
-2 28 -7 8 -10 28 -8 44 2 17 1 28 -4 25 -4 -3 -8 4 -8 15 0 12 -4 21 -10 21
-5 0 -10 10 -10 23 0 39 -37 129 -56 139 -16 8 -17 7 -4 -4 17 -15 50 -103 50
-133 0 -12 4 -25 9 -30 15 -15 27 -99 23 -159 -2 -23 -6 -27 -22 -23 -25 6
-40 -10 -40 -43 0 -5 -18 -10 -40 -10 -22 0 -40 3 -40 6 0 3 6 29 14 57 8 29
17 74 21 102 l7 50 20 -35 19 -35 -5 34 c-4 18 -22 56 -41 82 -19 27 -36 61
-36 77 -2 25 -2 25 -6 4 l-5 -24 -22 21 c-12 11 -44 32 -71 45 -48 25 -48 25
-24 35 14 5 62 8 107 8 70 -2 82 0 82 14 0 9 9 28 20 41 10 14 17 28 13 32 -3
3 2 15 12 26 10 11 16 22 13 25 -7 8 -40 -44 -34 -54 9 -13 -52 -71 -76 -72
-13 -1 -42 -1 -65 0 -23 0 -54 -4 -68 -9 -31 -12 -31 -10 0 53 31 60 76 116
90 109 5 -3 3 -8 -4 -10z m-341 -2 c0 -5 -2 -10 -4 -10 -3 0 -8 5 -11 10 -3 6
-1 10 4 10 6 0 11 -4 11 -10z m199 -7 c-4 -25 4 -33 31 -33 34 0 39 -12 13
-32 -10 -7 -18 -17 -19 -23 0 -5 -4 -22 -8 -36 l-7 -26 -24 21 c-18 16 -21 23
-10 28 9 6 12 22 10 51 -3 39 0 57 11 57 2 0 3 -3 3 -7z m-84 -23 c-3 -5 1
-10 10 -10 9 0 14 4 11 8 -2 4 5 9 17 9 17 2 19 0 7 -7 -8 -5 -10 -10 -4 -10
20 0 24 -43 7 -62 -9 -10 -14 -20 -12 -22 2 -1 13 -9 24 -15 l20 -13 -20 7
c-43 14 -171 45 -187 45 -25 0 -22 26 4 44 27 19 52 21 42 4 -6 -10 -4 -10 7
0 7 6 23 12 35 12 13 0 26 5 29 10 3 6 8 10 11 10 3 0 2 -4 -1 -10z m-1353
-60 c-17 -16 -21 -17 -26 -4 -3 9 -1 12 4 9 6 -3 10 -1 10 5 0 6 5 8 10 5 6
-3 10 2 11 12 0 12 2 13 6 5 3 -8 -4 -22 -15 -32z m-18 -49 c-5 -6 -34 20 -34
30 0 5 8 1 18 -8 10 -10 17 -20 16 -22z m-44 26 c0 -2 -12 -14 -27 -28 l-28
-24 24 28 c23 25 31 32 31 24z m18 -64 c-6 -7 -22 -12 -37 -12 -20 1 -21 2 -6
6 44 9 49 13 37 25 -7 7 -12 16 -12 22 0 5 6 1 14 -10 10 -13 11 -23 4 -31z
m1328 12 c31 -12 33 -14 9 -9 -16 3 -64 12 -105 20 l-75 14 66 -5 c37 -3 84
-12 105 -20z m2320 -186 c10 -17 -13 -36 -27 -22 -12 12 -4 33 11 33 5 0 12
-5 16 -11z m-1876 -189 c0 -5 -5 -10 -11 -10 -5 0 -7 5 -4 10 3 6 8 10 11 10
2 0 4 -4 4 -10z m77 -57 c10 -4 11 -9 2 -19 -9 -12 -9 -13 3 -9 23 9 29 -29
10 -57 -9 -13 -16 -24 -14 -25 10 -11 -2 -57 -21 -78 l-23 -27 -99 12 c-55 6
-121 16 -147 22 l-47 10 31 26 c18 15 36 26 41 24 5 -1 6 2 2 7 -3 6 10 31 30
56 19 26 35 51 35 56 0 5 20 9 45 9 25 0 47 5 52 13 4 7 19 21 32 30 24 16 25
16 40 -14 8 -17 21 -33 28 -36z m-1447 -149 c0 -8 -5 -12 -10 -9 -6 4 -8 11
-5 16 9 14 15 11 15 -7z m927 -5 c-14 -8 -15 -14 -7 -24 8 -10 8 -15 -1 -21
-7 -4 -9 -3 -5 4 10 16 -7 22 -21 6 -8 -8 -9 -15 -3 -19 6 -4 7 -11 4 -17 -5
-8 -1 -9 10 -5 9 4 15 3 12 -1 -3 -5 2 -9 10 -9 8 0 13 6 10 13 -3 7 2 10 14
7 10 -3 21 0 24 6 4 6 1 9 -7 5 -19 -7 -33 14 -18 29 8 8 18 5 36 -15 22 -24
23 -27 7 -32 -9 -3 6 -4 35 -2 42 2 50 0 46 -12 -5 -12 -3 -12 18 1 34 22 79
12 79 -18 0 -24 -29 -35 -91 -35 -17 0 -35 -9 -47 -25 -20 -25 -84 -37 -112
-20 -12 7 -12 4 1 -11 20 -25 19 -31 -15 -81 -19 -29 -27 -51 -24 -68 3 -16 1
-25 -7 -25 -14 0 -25 -22 -25 -51 0 -11 -7 -19 -17 -19 -14 0 -15 -2 -4 -9 20
-13 12 -24 -60 -84 -41 -33 -85 -59 -113 -67 -44 -12 -48 -12 -71 10 -22 21
-23 25 -10 44 8 11 14 34 14 51 -1 19 -3 23 -6 10 -2 -11 -6 -30 -9 -42 -3
-15 -12 -23 -25 -23 -11 0 -18 4 -15 8 2 4 -5 8 -16 8 -16 0 -11 -8 26 -41 53
-46 54 -56 22 -140 -20 -53 -24 -57 -34 -39 -6 11 -10 29 -9 39 2 16 -5 21
-30 23 -18 2 -33 9 -33 15 0 17 -40 51 -41 34 0 -6 -5 -2 -11 11 -6 12 -15 22
-20 22 -5 0 -7 3 -5 8 3 4 -5 7 -18 7 -13 0 -21 -3 -18 -7 2 -5 10 -8 16 -8
14 0 67 -57 67 -72 0 -5 5 -6 10 -3 6 3 10 1 10 -4 0 -6 16 -11 35 -11 32 0
35 -2 29 -24 -3 -13 -1 -27 5 -30 19 -12 12 -40 -20 -90 -27 -44 -31 -47 -43
-31 -9 13 -22 16 -49 13 -26 -3 -37 0 -37 9 0 7 -7 13 -15 13 -17 0 -65 28
-77 45 -5 6 -8 4 -8 -5 0 -9 14 -21 30 -27 17 -6 29 -17 27 -25 -2 -7 -2 -10
0 -5 7 12 31 8 36 -5 2 -8 20 -13 43 -13 53 0 55 -27 6 -83 l-37 -42 -68 26
c-66 25 -68 27 -62 55 4 15 2 36 -4 46 -7 13 -6 22 5 34 10 11 16 43 18 85 2
38 7 77 11 87 4 10 2 23 -5 32 -6 8 -8 20 -4 26 4 8 3 9 -4 5 -7 -4 -12 -2
-12 4 0 19 29 80 38 80 11 0 37 -29 45 -50 3 -10 6 -7 6 8 1 15 -9 28 -29 40
-34 20 -36 28 -13 54 9 10 11 18 5 18 -6 0 -16 -9 -22 -20 -6 -11 -18 -20 -28
-21 -13 0 -12 -2 5 -9 l21 -9 -21 -42 c-20 -40 -20 -43 -4 -71 10 -17 14 -35
10 -41 -4 -7 -9 -43 -10 -81 -1 -48 -7 -74 -19 -87 -15 -16 -15 -23 -5 -43 7
-13 10 -33 6 -45 l-6 -21 -39 20 c-27 14 -42 30 -50 54 -6 19 -38 60 -73 94
-35 33 -61 65 -59 72 3 8 0 10 -7 6 -6 -4 -44 20 -87 55 -73 61 -77 62 -107
51 -17 -6 -32 -10 -34 -8 -13 13 104 219 119 210 7 -5 12 11 9 29 -1 5 3 6 9
2 6 -3 7 -11 4 -17 -5 -7 -2 -8 5 -4 7 5 10 15 7 23 -3 8 -1 11 4 8 6 -3 10
-14 11 -23 0 -11 2 -12 6 -4 2 7 13 17 24 23 16 8 21 6 29 -13 9 -23 9 -23 9
-1 1 12 -3 25 -9 28 -5 3 -10 12 -10 18 0 7 4 6 10 -3 5 -8 13 -11 17 -6 4 4
0 13 -10 20 -28 21 -21 42 16 43 26 1 28 0 9 -5 -26 -8 -30 -29 -4 -24 15 2
15 1 2 -7 -13 -9 -13 -11 3 -11 9 0 17 -4 17 -10 0 -5 -4 -9 -9 -7 -5 1 -9 -2
-10 -8 -1 -13 57 -14 86 -2 12 6 20 14 17 18 -3 5 0 9 6 9 6 0 8 6 4 13 -6 10
-4 10 7 0 16 -15 33 -17 24 -3 -3 6 -2 10 3 10 6 0 13 -7 16 -16 4 -10 2 -13
-6 -8 -8 5 -9 2 -5 -9 8 -22 -2 -22 -20 1 -14 16 -14 16 -9 0 3 -10 2 -17 -2
-17 -21 3 -32 -2 -26 -12 12 -20 14 -82 3 -96 -6 -7 -9 -20 -5 -28 4 -12 -6
-21 -37 -35 -23 -11 -50 -20 -59 -20 -11 0 -15 -5 -12 -14 3 -9 -5 -15 -26
-19 -19 -4 -34 -16 -42 -31 -6 -14 -15 -23 -19 -20 -5 3 -9 0 -9 -5 0 -20 20
-11 32 14 6 14 23 28 37 32 14 3 34 14 44 24 23 24 44 25 26 2 -11 -14 -8 -13
11 2 14 11 28 24 31 29 4 5 17 6 29 3 12 -3 19 -3 15 1 -4 4 15 13 42 19 l48
13 -46 -6 -46 -5 1 68 c1 37 4 71 9 74 4 3 32 4 62 2 39 -2 55 1 55 10 0 8 4
7 10 -3 5 -8 10 -10 10 -4 0 7 20 14 44 15 24 2 42 1 39 -3 -2 -5 -20 -8 -40
-8 -47 0 -39 -7 15 -13 26 -3 42 0 42 6 0 7 4 7 12 -1 18 -18 45 -14 51 7 7
30 -5 35 -21 9 -13 -23 -13 -23 -9 -1 3 12 0 24 -7 26 -6 2 -8 7 -4 11 3 4 16
3 27 -4 14 -7 21 -7 21 0 0 5 -5 10 -11 10 -5 0 -7 5 -3 11 4 8 9 7 15 -2 8
-13 13 -5 10 14 -1 5 3 6 9 2 6 -4 4 -15 -6 -31 -12 -17 -13 -24 -4 -24 10 0
10 -3 0 -15 -7 -8 -9 -15 -4 -15 4 0 -9 -18 -31 -40 -21 -21 -42 -37 -47 -34
-4 3 -8 -2 -8 -10 0 -9 -12 -16 -32 -19 -32 -4 -32 -4 5 -5 20 -1 37 3 37 9 0
5 5 7 10 4 6 -3 10 -1 10 5 0 19 68 79 97 85 47 11 53 14 53 27 0 9 -3 9 -12
0 -18 -18 -51 -15 -44 3 3 8 1 15 -4 15 -6 0 -10 5 -10 11 0 8 5 8 15 -1 8 -7
15 -9 15 -5 0 4 6 2 14 -4 11 -9 16 -9 22 0 4 7 3 9 -3 6 -6 -4 -18 2 -28 13
-10 11 -15 21 -12 21 4 1 12 3 17 4 6 1 15 3 20 4 7 1 7 7 0 20 -7 15 -7 19 5
17 8 -1 18 -6 22 -11 4 -4 3 -5 -3 -2 -7 4 -10 -9 -10 -38 1 -25 4 -45 8 -45
4 0 4 -7 1 -17 -4 -11 -3 -14 5 -9 7 4 12 1 12 -8 0 -9 -6 -16 -12 -17 -10 0
-10 -2 0 -6 6 -2 12 -17 12 -32 0 -15 -6 -33 -12 -41 -11 -12 -10 -12 5 -1 11
9 17 27 17 56 0 56 8 75 27 68 10 -4 14 -2 10 4 -9 14 18 24 30 12 5 -5 14 0
21 12 8 12 9 19 4 15 -5 -3 -9 1 -9 10 0 9 7 12 17 9 9 -3 25 3 35 15 14 16
15 22 5 35 -10 13 -9 15 9 15 14 0 20 -4 15 -12 -4 -7 -3 -8 5 -4 6 4 9 11 7
15 -3 4 8 15 25 25 16 9 27 21 25 25 -7 11 41 12 69 1 16 -6 25 -6 25 0 0 6
-9 10 -19 10 -11 0 -23 5 -26 10 -4 6 -10 8 -15 5 -4 -3 -15 6 -24 20 -9 14
-12 25 -7 25 5 0 13 -9 16 -20 4 -11 11 -18 16 -14 6 3 6 11 1 17 -5 7 -9 23
-10 37 -1 18 1 21 8 10 5 -8 7 -17 5 -21 -3 -3 4 -14 15 -24 18 -17 30 -8 13
9 -5 4 -9 12 -9 17 -1 5 -3 11 -4 14 -14 27 8 60 42 62 21 2 21 1 5 -8z m103
-33 c0 -2 -7 -6 -15 -10 -8 -3 -15 -1 -15 4 0 6 7 10 15 10 8 0 15 -2 15 -4z
m-190 -26 c0 -5 -5 -10 -11 -10 -5 0 -7 5 -4 10 3 6 8 10 11 10 2 0 4 -4 4
-10z m214 -2 c-3 -4 -12 -8 -20 -8 -8 0 -13 4 -10 8 3 5 12 9 20 9 8 0 13 -4
10 -9z m-250 -54 c4 -9 4 -19 1 -22 -2 -3 -7 3 -11 12 -6 15 -8 15 -18 1 -8
-11 -15 -12 -26 -4 -13 9 -13 10 2 6 9 -3 19 1 22 9 7 19 22 18 30 -2z m-60
-39 c6 -17 36 -17 49 0 5 6 7 4 5 -4 -5 -17 -58 -27 -58 -11 0 5 -7 10 -16 10
-10 0 -14 -6 -10 -15 3 -8 1 -15 -4 -15 -14 0 -12 24 2 38 16 16 25 15 32 -3z
m416 7 c0 -5 -6 -17 -14 -27 -12 -17 -16 -18 -32 -5 -18 14 -18 14 -2 -6 17
-19 16 -22 -55 -83 -39 -35 -97 -87 -128 -117 -31 -29 -59 -50 -63 -47 -12 13
-6 43 12 52 13 7 17 18 15 38 -3 21 4 39 26 67 17 21 31 47 31 57 0 15 8 19
35 19 26 0 39 6 51 26 14 20 24 25 50 22 18 -1 36 1 40 5 10 10 34 9 34 -1z
m-505 -42 c-4 -6 -4 -19 0 -28 4 -9 9 -28 11 -42 2 -19 1 -21 -6 -10 -9 14
-15 7 -11 -14 1 -5 -5 -3 -14 4 -8 7 -13 15 -10 18 3 3 -4 11 -15 19 -11 8
-17 20 -13 29 5 15 7 15 15 0 12 -22 28 -20 28 2 0 10 3 22 7 25 10 11 15 8 8
-3z m-475 -40 c0 -5 -4 -10 -10 -10 -5 0 -10 5 -10 10 0 6 5 10 10 10 6 0 10
-4 10 -10z m545 -9 c-3 -6 -11 -11 -16 -11 -5 0 -4 6 3 14 14 16 24 13 13 -3z
m-552 -9 c18 -3 27 0 27 9 0 10 3 11 8 3 4 -7 16 -14 27 -17 12 -3 4 -6 -20
-7 -22 -1 -44 -1 -50 0 -53 13 -52 13 -31 -4 12 -9 14 -16 7 -16 -7 0 -19 7
-27 15 -9 9 -11 15 -4 15 6 0 8 5 4 12 -5 8 -2 9 12 3 10 -4 31 -10 47 -13z
m177 8 c0 -5 -5 -10 -11 -10 -5 0 -7 5 -4 10 3 6 8 10 11 10 2 0 4 -4 4 -10z
m59 -17 c2 -2 -3 -3 -11 -3 -9 0 -19 7 -22 16 -6 15 -4 15 11 3 10 -7 20 -15
22 -16z m55 14 c-4 -12 -44 -22 -44 -11 0 4 30 18 47 23 1 1 0 -5 -3 -12z m53
6 c-9 -2 -15 -9 -12 -14 3 -5 -1 -6 -9 -3 -25 9 -19 20 12 21 15 0 19 -1 9 -4z
m-439 -41 c-7 -10 -14 -19 -15 -21 -3 -4 2 28 6 47 1 2 6 0 11 -3 8 -5 7 -12
-2 -23z m522 18 c0 -5 -4 -10 -10 -10 -5 0 -10 5 -10 10 0 6 5 10 10 10 6 0
10 -4 10 -10z m-366 -35 c-24 -19 -35 -19 -28 -1 5 14 34 26 43 19 3 -2 -4
-10 -15 -18z m106 21 c0 -3 -4 -8 -10 -11 -5 -3 -10 -1 -10 4 0 6 5 11 10 11
6 0 10 -2 10 -4z m775 -6 c-3 -5 -11 -10 -16 -10 -6 0 -7 5 -4 10 3 6 11 10
16 10 6 0 7 -4 4 -10z m-1005 -4 c0 -2 -7 -7 -16 -10 -8 -3 -12 -2 -9 4 6 10
25 14 25 6z m275 -6 c4 -6 -5 -10 -20 -10 -15 0 -24 4 -20 10 3 6 12 10 20 10
8 0 17 -4 20 -10z m235 6 c0 -2 -9 -6 -20 -9 -11 -3 -20 -1 -20 4 0 5 9 9 20
9 11 0 20 -2 20 -4z m-654 -37 c19 -21 19 -21 0 -18 -11 2 -20 12 -22 22 -3
22 -1 22 22 -4z m139 11 c-3 -5 -13 -10 -21 -10 -9 0 -12 -5 -8 -12 4 -7 3 -8
-4 -4 -19 11 -14 24 11 29 12 2 23 5 25 6 2 0 0 -3 -3 -9z m125 -10 c-6 -11
-16 -18 -21 -14 -6 3 -3 12 8 20 24 18 26 17 13 -6z m876 0 c12 0 11 -5 -4
-20 -12 -13 -25 -18 -35 -14 -10 4 -17 1 -17 -6 0 -7 -8 -10 -20 -7 -19 5 -24
-3 -21 -32 2 -11 0 -11 -12 0 -11 11 -11 15 1 30 8 10 22 15 30 11 11 -4 13
-2 7 8 -5 8 -4 11 2 7 13 -8 36 17 25 28 -4 5 -1 5 6 1 7 -4 12 -2 13 6 0 10
2 10 6 1 2 -7 11 -13 19 -13z m-806 6 c0 -2 -11 -6 -25 -8 -13 -3 -22 -1 -19
3 5 9 44 13 44 5z m878 -114 c-51 -56 -102 -102 -115 -102 -7 0 -13 -4 -13
-10 0 -20 37 6 97 67 l62 64 15 -23 c41 -64 86 -177 91 -233 5 -46 4 -56 -5
-42 -6 9 -22 17 -36 17 -13 0 -27 7 -30 15 -4 8 -11 15 -17 15 -5 0 -2 -8 7
-19 16 -18 14 -20 -53 -54 -47 -24 -71 -32 -75 -24 -3 7 -5 6 -5 -3 -1 -8 -43
-43 -94 -77 -84 -56 -93 -60 -106 -45 -12 15 -13 15 -8 -6 5 -20 0 -26 -28
-38 -51 -21 -65 -18 -65 13 0 51 -22 92 -52 98 -27 6 -32 15 -29 44 2 7 -3 10
-9 6 -6 -4 -19 0 -28 8 -9 8 -23 16 -31 19 -16 5 -25 44 -12 53 5 3 13 0 17
-6 4 -8 3 -9 -4 -5 -7 4 -12 3 -12 -2 0 -18 28 -21 36 -4 11 25 12 52 2 52 -5
0 -6 5 -2 11 4 8 9 7 15 -2 4 -7 5 -17 3 -21 -3 -4 2 -5 10 -2 9 3 16 10 16
16 0 5 -4 6 -10 3 -5 -3 -10 2 -10 11 0 16 1 16 20 -1 16 -14 20 -15 21 -4 1
8 2 20 3 28 0 8 7 16 15 19 8 3 11 0 7 -7 -4 -6 -4 -11 -1 -11 10 0 35 28 35
39 0 6 7 8 15 5 10 -4 13 -14 9 -29 -4 -18 -1 -25 15 -30 25 -8 26 -18 6 -49
-15 -22 -14 -24 9 -30 23 -6 24 -8 14 -43 -8 -31 -7 -39 7 -49 12 -9 16 -22
13 -38 -3 -14 -2 -23 2 -21 4 3 10 17 13 31 3 19 0 28 -12 31 -15 4 -16 9 -7
39 9 28 16 34 39 34 20 0 30 6 34 20 3 11 9 20 14 20 5 0 6 7 3 15 -8 19 3 19
23 0 8 -8 18 -13 22 -10 5 2 36 7 70 11 51 5 66 3 81 -11 19 -17 40 -13 40 8
0 7 -4 6 -10 -3 -8 -12 -13 -11 -33 8 -13 12 -25 21 -28 18 -2 -2 -28 -6 -57
-10 -43 -6 -52 -4 -46 6 6 9 3 9 -10 -1 -10 -9 -20 -11 -26 -5 -14 14 -1 52
19 59 18 5 23 45 8 56 -5 4 -9 24 -10 45 0 22 -5 45 -10 52 -7 8 -5 18 7 30 9
10 13 22 9 27 -5 4 -3 5 4 2 16 -10 44 3 36 16 -4 6 -1 7 6 3 7 -5 21 0 32 10
14 13 19 14 19 3 0 -8 7 -4 16 10 l16 23 24 -43 25 -42 -23 -25z m-201 21 c-4
-3 2 -17 14 -29 12 -13 19 -29 16 -37 -3 -8 -1 -33 5 -55 10 -39 8 -44 -21
-81 -17 -21 -34 -53 -37 -70 -6 -26 -11 -31 -36 -31 -39 0 -69 17 -62 35 4 8
10 13 14 10 5 -3 6 4 3 15 -3 11 -14 25 -23 30 -18 10 -17 42 1 66 5 6 7 13 4
16 -3 3 3 11 12 19 16 12 17 12 8 -1 -5 -9 -2 -8 7 3 10 10 14 25 11 35 -6 14
-4 15 8 5 13 -10 22 -7 50 18 19 17 26 26 17 20 -13 -10 -16 -9 -14 1 2 17 15
38 23 38 4 0 3 -3 0 -7z m-37 -47 c0 -2 -8 -10 -17 -17 -16 -13 -17 -12 -4 4
13 16 21 21 21 13z m-3300 -126 c0 -5 -4 -10 -10 -10 -5 0 -10 5 -10 10 0 6 5
10 10 10 6 0 10 -4 10 -10z m5918 -54 c4 -31 -10 -46 -45 -46 -32 0 -44 47
-17 67 30 22 58 12 62 -21z m-3649 -159 c20 -42 23 -138 6 -144 -6 -2 -9 15
-7 42 4 45 -24 145 -40 145 -4 0 -8 5 -8 11 0 21 30 -12 49 -54z m-70 19 c22
-47 27 -159 8 -175 -45 -37 -103 47 -94 136 7 66 13 75 45 71 18 -2 31 -13 41
-32z m843 2 c13 -13 15 -16 4 -8 -19 15 -19 15 0 -12 10 -14 21 -25 22 -23 2
2 16 -1 30 -6 30 -10 52 -49 52 -90 0 -15 5 -31 11 -35 12 -7 -41 -42 -82 -54
-26 -8 -29 -4 -59 61 -19 43 -34 93 -37 129 -5 56 -4 60 15 60 12 0 31 -10 44
-22z m-1302 -48 c0 -5 -4 -10 -10 -10 -5 0 -10 5 -10 10 0 6 5 10 10 10 6 0
10 -4 10 -10z m1943 -84 c7 -21 5 -42 -9 -82 -19 -57 -34 -65 -68 -39 -38 29
1 160 46 153 13 -2 25 -14 31 -32z m-140 -17 c-11 -32 -11 -49 -3 -73 9 -25 8
-28 -2 -18 -17 17 -17 95 1 115 20 25 20 22 4 -24z m-1178 12 c-3 -6 -11 -11
-16 -11 -5 0 -4 6 3 14 14 16 24 13 13 -3z m1101 -42 c3 -6 2 -15 -4 -21 -6
-6 -11 -2 -15 11 -5 22 7 29 19 10z m-1174 -137 l37 3 -21 -22 c-18 -19 -23
-20 -42 -9 -16 10 -26 11 -43 1 -13 -6 -20 -15 -16 -18 3 -4 1 -7 -5 -7 -11 0
-26 41 -36 98 l-6 34 47 -42 c41 -36 53 -41 85 -38z m1002 48 c25 -9 25 -10 8
-40 -14 -24 -14 -32 -4 -39 10 -6 10 -10 -3 -21 -14 -12 -10 -18 33 -60 28
-26 47 -52 43 -57 -3 -5 -20 -13 -38 -16 -23 -5 -39 -1 -60 15 -27 21 -27 21
-10 1 17 -20 17 -20 -14 -27 -43 -8 -91 -8 -86 2 3 4 -12 8 -33 8 -34 2 -103
34 -73 34 7 0 20 16 29 35 9 19 21 35 28 35 17 -1 47 -26 39 -34 -10 -10 29 5
45 17 9 7 12 3 13 -14 0 -13 3 -18 6 -11 3 7 2 19 -1 28 -5 12 -10 13 -27 3
-14 -7 -24 -7 -28 -1 -3 5 -16 13 -29 17 -23 7 -23 7 -5 28 10 11 13 18 7 14
-15 -9 -40 22 -42 52 -1 22 2 23 49 19 29 -3 66 0 87 8 20 7 38 13 39 14 1 0
13 -4 27 -10z m-691 -33 c-9 -46 -43 -86 -73 -86 -15 -1 -31 -6 -38 -13 -13
-13 -16 -4 -13 38 1 11 -7 28 -19 39 -11 10 -20 22 -20 26 0 13 53 26 112 27
l57 2 -6 -33z m87 23 c8 -5 10 -10 5 -10 -6 0 -11 -8 -11 -19 0 -11 5 -17 13
-14 7 3 11 9 8 13 -3 5 -1 11 5 15 6 4 7 11 4 17 -5 7 -2 8 5 3 9 -5 9 -11 3
-17 -6 -6 -8 -17 -4 -26 5 -13 7 -12 14 4 8 18 8 18 5 -1 -2 -13 -9 -19 -22
-18 -11 1 -14 0 -7 -3 6 -3 9 -11 6 -16 -4 -6 -2 -8 4 -4 6 3 13 2 17 -4 3 -5
-2 -10 -12 -10 -17 -1 -17 -1 0 -11 21 -12 23 -33 2 -25 -8 3 -15 1 -15 -4 0
-6 8 -11 18 -11 16 -1 16 -2 0 -6 -10 -2 -18 -10 -18 -16 -1 -7 -8 4 -18 24
-10 20 -23 34 -30 31 -16 -5 -44 17 -36 29 3 5 -2 6 -10 3 -9 -3 -16 -1 -16 5
0 6 5 11 11 11 5 0 7 5 4 10 -3 6 -1 10 4 10 6 0 11 5 11 11 0 5 -5 7 -11 3
-8 -4 -8 0 0 15 12 22 46 27 71 11z m399 -27 c2 -2 -3 -3 -11 -3 -9 0 -19 7
-22 16 -6 15 -4 15 11 3 10 -7 20 -15 22 -16z m272 -1 c13 -10 58 -37 100 -58
70 -37 78 -39 98 -26 21 14 21 14 11 -14 -17 -43 -29 -54 -62 -54 -47 0 -118
21 -111 33 3 6 1 7 -5 3 -7 -4 -12 -14 -12 -22 0 -20 -8 -18 -35 14 -16 17
-24 37 -23 55 2 15 -3 32 -11 36 -10 7 -11 13 -2 30 14 26 22 26 52 3z m-917
-19 c11 -15 21 -38 22 -51 1 -25 20 -67 42 -94 35 -43 -35 -53 -74 -11 -14 15
-28 40 -31 56 -4 22 -10 27 -24 24 -12 -3 -26 4 -39 20 -11 15 -23 24 -25 21
-3 -3 5 -18 17 -33 l22 -28 -55 7 c-74 10 -99 17 -99 27 0 5 5 9 11 9 7 0 17
7 24 16 9 14 16 14 34 5 20 -11 27 -8 62 23 48 44 83 47 113 9z m630 -22 c13
-11 16 -11 16 0 0 10 3 10 12 1 9 -9 9 -15 0 -24 -7 -7 -12 -20 -12 -29 0 -14
-18 -29 -40 -33 -3 -1 -9 -4 -15 -8 -6 -4 -11 12 -11 40 -1 36 0 42 7 25 4
-13 13 -23 19 -23 6 0 9 4 5 9 -3 5 -1 12 4 15 5 4 8 -5 7 -19 -2 -13 1 -22 5
-19 5 3 7 15 5 27 -3 12 -5 26 -5 31 -1 5 -8 3 -16 -4 -8 -7 -15 -10 -15 -7 0
3 -3 12 -6 20 -7 19 17 17 40 -2z m-474 -26 c5 3 18 -3 29 -14 19 -19 19 -19
-3 -40 -12 -12 -26 -18 -31 -14 -4 5 -5 2 -1 -5 6 -11 14 -8 34 10 15 13 30
28 34 33 4 6 8 2 8 -8 0 -10 5 -15 10 -12 6 4 10 -7 10 -27 0 -22 3 -29 9 -20
6 10 10 7 13 -12 l5 -26 -99 0 c-59 0 -97 4 -93 9 3 6 -3 24 -14 42 -23 38
-14 59 25 59 14 0 28 9 35 22 8 14 14 18 17 10 2 -6 8 -10 12 -7z m710 -11 c0
-8 -5 -12 -10 -9 -6 4 -8 11 -5 16 9 14 15 11 15 -7z m-920 -34 c0 -5 -4 -10
-10 -10 -5 0 -10 5 -10 10 0 6 5 10 10 10 6 0 10 -4 10 -10z m38 -76 c14 -10
13 -11 -11 -7 -23 5 -27 10 -26 37 0 30 1 30 10 7 5 -13 17 -30 27 -37z
m-1958 -342 c0 -13 -12 -22 -22 -16 -10 6 -1 24 13 24 5 0 9 -4 9 -8z"/>
<path d="M1892 4690 c0 -14 2 -19 5 -12 2 6 2 18 0 25 -3 6 -5 1 -5 -13z"/>
<path d="M2960 3566 c0 -2 8 -10 18 -17 15 -13 16 -12 3 4 -13 16 -21 21 -21
13z"/>
<path d="M3880 3560 c0 -5 5 -10 11 -10 5 0 7 5 4 10 -3 6 -8 10 -11 10 -2 0
-4 -4 -4 -10z"/>
<path d="M3699 3533 c-13 -16 -12 -17 4 -4 9 7 17 15 17 17 0 8 -8 3 -21 -13z"/>
<path d="M3445 3540 c3 -5 8 -10 11 -10 2 0 4 5 4 10 0 6 -5 10 -11 10 -5 0
-7 -4 -4 -10z"/>
<path d="M3168 3453 c7 -3 16 -2 19 1 4 3 -2 6 -13 5 -11 0 -14 -3 -6 -6z"/>
<path d="M2799 3443 c-13 -16 -12 -17 4 -4 16 13 21 21 13 21 -2 0 -10 -8 -17
-17z"/>
<path d="M2588 3313 c7 -3 16 -2 19 1 4 3 -2 6 -13 5 -11 0 -14 -3 -6 -6z"/>
<path d="M2692 3270 c0 -14 2 -19 5 -12 2 6 2 18 0 25 -3 6 -5 1 -5 -13z"/>
<path d="M2981 3264 c0 -11 3 -14 6 -6 3 7 2 16 -1 19 -3 4 -6 -2 -5 -13z"/>
<path d="M2495 3241 c4 -8 53 -23 85 -26 8 -1 22 -5 31 -9 26 -11 93 -14 106
-3 17 13 83 27 83 17 0 -4 8 -11 17 -14 15 -6 15 -5 -1 12 -14 17 -23 18 -54
10 -20 -5 -44 -10 -52 -12 -9 -1 -20 -5 -25 -8 -18 -11 -73 4 -96 25 -20 19
-22 19 -16 3 6 -15 4 -17 -10 -11 -38 15 -73 23 -68 16z"/>
<path d="M2942 3170 c0 -14 2 -19 5 -12 2 6 2 18 0 25 -3 6 -5 1 -5 -13z"/>
<path d="M2290 3155 c13 -14 26 -25 28 -25 3 0 -5 11 -18 25 -13 14 -26 25
-28 25 -3 0 5 -11 18 -25z"/>
<path d="M2368 3158 c6 -6 18 -8 28 -6 14 3 12 5 -9 10 -19 3 -25 2 -19 -4z"/>
<path d="M2530 3010 c6 -11 13 -20 16 -20 2 0 0 9 -6 20 -6 11 -13 20 -16 20
-2 0 0 -9 6 -20z"/>
<path d="M2720 3016 c0 -2 8 -10 18 -17 15 -13 16 -12 3 4 -13 16 -21 21 -21
13z"/>
<path d="M2956 3001 c-4 -5 3 -7 14 -4 23 6 26 13 6 13 -8 0 -17 -4 -20 -9z"/>
<path d="M2773 2943 c9 -2 25 -2 35 0 9 3 1 5 -18 5 -19 0 -27 -2 -17 -5z"/>
<path d="M2489 2833 c-13 -16 -12 -17 4 -4 9 7 17 15 17 17 0 8 -8 3 -21 -13z"/>
<path d="M2428 2808 c5 -5 16 -8 23 -6 8 3 3 7 -10 11 -17 4 -21 3 -13 -5z"/>
<path d="M2658 2803 c6 -2 18 -2 25 0 6 3 1 5 -13 5 -14 0 -19 -2 -12 -5z"/>
<path d="M4115 3010 c3 -5 8 -10 11 -10 2 0 4 5 4 10 0 6 -5 10 -11 10 -5 0
-7 -4 -4 -10z"/>
<path d="M4130 2851 c0 -5 5 -13 10 -16 6 -3 10 -2 10 4 0 5 -4 13 -10 16 -5
3 -10 2 -10 -4z"/>
<path d="M3978 2783 c7 -3 16 -2 19 1 4 3 -2 6 -13 5 -11 0 -14 -3 -6 -6z"/>
<path d="M3639 2743 c-13 -16 -12 -17 4 -4 16 13 21 21 13 21 -2 0 -10 -8 -17
-17z"/>
<path d="M3700 2720 c0 -5 5 -10 10 -10 6 0 10 5 10 10 0 6 -4 10 -10 10 -5 0
-10 -4 -10 -10z"/>
<path d="M3691 2614 c0 -11 3 -14 6 -6 3 7 2 16 -1 19 -3 4 -6 -2 -5 -13z"/>
<path d="M3295 2480 c3 -5 8 -10 11 -10 2 0 4 5 4 10 0 6 -5 10 -11 10 -5 0
-7 -4 -4 -10z"/>
<path d="M3265 2440 c-3 -5 1 -10 10 -10 9 0 13 5 10 10 -3 6 -8 10 -10 10 -2
0 -7 -4 -10 -10z"/>
<path d="M2730 2355 c-7 -8 -17 -12 -24 -8 -6 3 -3 -3 7 -14 9 -11 17 -25 17
-31 0 -6 4 -13 9 -16 5 -4 7 3 4 14 -3 11 -10 23 -15 26 -5 3 -2 14 8 25 9 10
15 19 12 19 -3 0 -11 -7 -18 -15z"/>
<path d="M3530 2356 c0 -2 8 -10 18 -17 15 -13 16 -12 3 4 -13 16 -21 21 -21
13z"/>
<path d="M3203 2333 c9 -2 25 -2 35 0 9 3 1 5 -18 5 -19 0 -27 -2 -17 -5z"/>
<path d="M2961 2204 c0 -11 3 -14 6 -6 3 7 2 16 -1 19 -3 4 -6 -2 -5 -13z"/>
<path d="M2888 2123 c7 -3 16 -2 19 1 4 3 -2 6 -13 5 -11 0 -14 -3 -6 -6z"/>
<path d="M3015 1839 c-4 -6 -5 -12 -2 -15 2 -3 7 2 10 11 7 17 1 20 -8 4z"/>
<path d="M3389 2528 c-4 -15 -6 -38 -3 -38 2 0 8 9 14 20 7 14 7 20 0 20 -5 0
-10 -1 -11 -2z"/>
<path d="M3827 2433 c-4 -3 -7 -11 -7 -17 0 -6 5 -5 12 2 6 6 9 14 7 17 -3 3
-9 2 -12 -2z"/>
<path d="M3717 2031 c-4 -17 -3 -21 5 -13 5 5 8 16 6 23 -3 8 -7 3 -11 -10z"/>
<path d="M3565 2010 c3 -5 8 -10 11 -10 2 0 4 5 4 10 0 6 -5 10 -11 10 -5 0
-7 -4 -4 -10z"/>
<path d="M3536 1681 c-10 -10 -14 -21 -9 -24 5 -3 13 6 20 19 13 29 11 30 -11
5z"/>
<path d="M2899 1633 c-13 -16 -12 -17 4 -4 16 13 21 21 13 21 -2 0 -10 -8 -17
-17z"/>
<path d="M3423 1577 c0 -8 6 -14 14 -14 9 0 10 4 2 14 -6 7 -12 13 -14 13 -1
0 -2 -6 -2 -13z"/>
</g>
</svg>
